<svg width="50" height="50" viewBox="0 0 50 50" fill="none" xmlns="http://www.w3.org/2000/svg">
<path d="M46.9414 41.5852C45.1414 39.4859 42.5266 38.2812 39.7633 38.2812C39.7625 38.2812 39.7617 38.2812 39.7617 38.2812L26.6094 38.282C26.6086 38.282 26.6086 38.282 26.6078 38.282C25.7797 38.282 25.0008 37.9594 24.3859 37.343C23.775 36.732 23.4375 35.9211 23.4375 35.0586V33.3477C23.4375 33.1672 23.4172 32.9898 23.3984 32.8117H32.0312C34.6164 32.8117 36.7188 30.7094 36.7188 28.1242V13.2812C36.7188 11.5578 35.3172 10.1562 33.5938 10.1562C32.0414 10.1562 30.7492 11.2945 30.5094 12.7797C29.518 13.3141 28.9062 14.3344 28.9062 15.4656C28.9062 16.2805 29.2234 17.0469 29.8008 17.6234L30.4688 18.2922V25.7336L22.9492 25.2914C23.1453 24.9289 23.2992 24.5437 23.3742 24.1352C24.7531 23.8102 25.7812 22.5703 25.7812 21.0938C25.7812 20.543 25.6328 20.0055 25.3547 19.5312C25.6328 19.057 25.7812 18.5195 25.7812 17.9688C25.7812 17.6219 25.7211 17.2844 25.6125 16.9625C28.8438 15.2094 28.9062 11.7633 28.9062 11.7188V10.9375H26.5625C26.0555 10.9375 25.5227 11.0055 24.9875 11.1094C24.9906 11.0523 25 10.9953 25 10.9375C25 10.2734 24.7859 9.63438 24.3969 9.10469C24.7883 8.48516 25 7.76953 25 7.03125C25 4.87734 23.2477 3.125 21.0938 3.125C20.7766 3.125 20.4625 3.16328 20.157 3.23984C19.4062 2.50312 18.2906 2.17109 17.2437 2.43281C16.5203 1.41172 15.3367 0.78125 14.0625 0.78125C12.7828 0.78125 11.6187 1.39531 10.893 2.41875C10.6477 2.36875 10.4008 2.34375 10.1562 2.34375C8.12422 2.34375 6.45 3.90313 6.26641 5.88828C5.30391 6.43672 4.6875 7.46406 4.6875 8.59375C4.6875 9.43672 5.02422 10.2258 5.61094 10.8055C5.55938 10.9664 5.525 11.1305 5.50156 11.2961C4.71406 11.0891 3.88828 10.9375 3.125 10.9375H0.78125V11.7188C0.78125 11.7633 0.84375 15.2109 4.07734 16.9641C3.96797 17.2852 3.90625 17.6227 3.90625 17.9688C3.90625 18.5195 4.05469 19.057 4.33281 19.5312C4.05469 20.0055 3.90625 20.543 3.90625 21.0938C3.90625 22.5703 4.93438 23.8102 6.31328 24.1359C6.41328 24.6828 6.63047 25.1992 6.94297 25.6523C5.51484 26.0031 4.19062 26.7359 3.14687 27.7797C1.62109 29.3047 0.78125 31.3328 0.78125 33.4906V37.5C0.78125 39.6539 2.53359 41.4062 4.6875 41.4062H6.3125C6.50156 41.6094 6.69297 41.8078 6.89687 41.993C5.47031 43.8336 4.6875 46.0906 4.6875 48.4375V49.2188H49.2188V47.7422C49.2188 45.4844 48.4102 43.2977 46.9414 41.5852ZM24.2188 17.9688C24.2188 18.4539 23.9977 18.8016 23.8117 19.0086L23.3406 19.5312L23.8117 20.0539C23.9977 20.2609 24.2188 20.6086 24.2188 21.0938C24.2188 21.9555 23.518 22.6562 22.6562 22.6562H21.875V23.4375C21.875 24.1102 21.5711 24.7383 21.0719 25.1812L19.218 25.0719C18.8641 25.0508 18.568 24.793 18.4977 24.4453L18.2898 23.4062C20.4484 22.3383 22.0469 20.3086 22.5125 17.875C23.1086 17.807 23.6664 17.7109 24.1562 17.568C24.1914 17.6984 24.2188 17.8312 24.2188 17.9688ZM11.1227 21.4156L11.4234 19.3094C11.5328 18.5445 12.1969 17.968 12.9695 17.968H16.7172C17.4898 17.968 18.1547 18.5445 18.2633 19.3094L18.5641 21.4148C17.5234 22.1914 16.2383 22.6562 14.8438 22.6562C13.4492 22.6562 12.1641 22.1914 11.1227 21.4156ZM19.9422 20.0086L19.8109 19.0898C19.593 17.5602 18.2625 16.4062 16.7172 16.4062H12.9695C11.4242 16.4062 10.0938 17.5602 9.87578 19.0891L9.74453 20.0086C9.02266 18.9891 8.59375 17.7477 8.59375 16.4062V13.7109C8.59375 11.7508 10.1883 10.1562 12.1484 10.1562H15.625C16.5562 10.1562 17.3633 9.60938 17.7406 8.82031L18.6633 9.12813C20.1172 9.6125 21.0938 10.968 21.0938 12.5V16.4062C21.0938 17.7477 20.6648 18.9891 19.9422 20.0086ZM27.2352 12.5C26.9625 13.6742 26.0023 15.7898 22.6562 16.293V13.4484C23.7086 13.0289 25.2844 12.5 26.5625 12.5H27.2352ZM7.03125 11.7188C7.03125 11.4586 7.10234 11.2023 7.24219 10.9563L7.61094 10.3086L6.98125 9.91016C6.52344 9.62031 6.25 9.12813 6.25 8.59375C6.25 7.93594 6.67266 7.34609 7.30234 7.12734L7.84453 6.93828L7.82578 6.36406C7.82422 6.31328 7.81875 6.26406 7.8125 6.25C7.8125 4.68906 9.35703 3.44844 10.9805 4.06562L11.6492 4.31953L11.9602 3.675C12.357 2.85391 13.1625 2.34375 14.0625 2.34375C14.9734 2.34375 15.8078 2.88281 16.1891 3.71797L16.5297 4.46406L17.2586 4.08828C18 3.70703 18.8312 3.96406 19.257 4.58672L19.6148 5.10859L20.2 4.86719C20.4867 4.74766 20.7875 4.6875 21.0938 4.6875C22.3859 4.6875 23.4375 5.73906 23.4375 7.03125C23.4375 7.61719 23.2125 8.18125 22.8047 8.62031L22.2461 9.22109L22.8734 9.74922C23.232 10.0508 23.4375 10.4836 23.4375 10.9375C23.4375 11.1531 23.3789 11.3578 23.2945 11.5531C23.0562 11.6313 22.825 11.7133 22.6 11.7961C22.3359 9.88906 21.0234 8.26797 19.157 7.64531L17.8937 7.22422C17.632 6.21562 16.7148 5.46875 15.625 5.46875H14.8438V7.03125H15.625C16.0562 7.03125 16.4062 7.38203 16.4062 7.8125C16.4062 8.24297 16.0562 8.59375 15.625 8.59375H12.1484C9.96406 8.59375 8.1 9.97266 7.36719 11.9031C7.26094 11.8625 7.15391 11.8219 7.03984 11.7805C7.03906 11.7594 7.03125 11.7398 7.03125 11.7188ZM2.45234 12.5H3.125C4.40469 12.5 5.97734 13.0266 7.04453 13.4539C7.03984 13.5398 7.03125 13.6242 7.03125 13.7109V16.293C3.68359 15.7898 2.72422 13.6719 2.45234 12.5ZM5.46875 21.0938C5.46875 20.6086 5.68984 20.2609 5.87578 20.0539L6.34687 19.5312L5.87578 19.0086C5.68984 18.8016 5.46875 18.4539 5.46875 17.9688C5.46875 17.8312 5.49297 17.6977 5.52734 17.5672C6.01797 17.7109 6.57734 17.807 7.17422 17.875C7.63984 20.3086 9.2375 22.3391 11.3969 23.4062L11.1734 24.5242C11.1078 24.8539 10.8391 25.1039 10.5047 25.1453L8.83828 25.3539C8.20781 24.9187 7.8125 24.2094 7.8125 23.4375V22.6562H7.03125C6.16953 22.6562 5.46875 21.9555 5.46875 21.0938ZM2.34375 37.5V33.4906C2.34375 31.75 3.02109 30.1148 4.25078 28.8844C5.27031 27.8656 6.61875 27.2063 8.04844 27.0273L10.6977 26.6961C11.7008 26.5711 12.5078 25.8211 12.7047 24.8305L12.8789 23.9594C13.5086 24.1227 14.1641 24.2188 14.8438 24.2188C15.5234 24.2188 16.1789 24.1227 16.8078 23.9586L16.9664 24.7516C17.1758 25.7953 18.0641 26.5688 19.1273 26.6313L30.9078 27.3242L32.2602 28.6766L33.3648 27.5719L32.0312 26.2391V17.6453L30.9055 16.5187C30.6281 16.2414 30.4688 15.8578 30.4688 15.4656C30.4688 14.8977 30.7836 14.3875 31.2922 14.1336L32.0312 13.7641V13.2812C32.0312 12.4195 32.732 11.7188 33.5938 11.7188C34.4555 11.7188 35.1562 12.4195 35.1562 13.2812V28.125C35.1562 29.8484 33.7547 31.25 32.0312 31.25H22.9828C22.8672 30.9922 22.7352 30.7406 22.5758 30.5023L21.7438 29.2539L20.4437 30.1203L21.2758 31.3687C21.6672 31.957 21.875 32.6414 21.875 33.3484V35.0594C21.875 36.3383 22.375 37.5422 23.3109 38.4781C23.3625 38.5297 23.418 38.575 23.4719 38.6242C22.0578 41.282 19.2789 42.9688 16.2344 42.9688H13.4531C11.7094 42.9688 10.0344 42.4094 8.64922 41.4062H17.9688C19.6922 41.4062 21.0938 40.0047 21.0938 38.2812C21.0938 36.5578 19.6922 35.1562 17.9688 35.1562H17.5109L16.9008 34.5453C16.2867 33.932 15.4703 33.5938 14.6023 33.5938C13.5133 33.5938 12.5023 34.1344 11.8977 35.0414L11.3586 35.8508L8.34375 35.2477C8.07109 35.193 7.79453 35.1672 7.51719 35.1625L7.40859 34.9445C7.16172 34.4516 7.03125 33.8992 7.03125 33.3484C7.03125 32.6422 7.23906 31.957 7.63047 31.3695L8.4625 30.1211L7.1625 29.2547L6.33047 30.5031C5.76641 31.3477 5.46875 32.332 5.46875 33.3484C5.46875 34.0586 5.62734 34.7664 5.91328 35.4172C5.53594 35.5461 5.17188 35.718 4.83672 35.9414L3.47266 36.8508L4.33906 38.1508L5.70312 37.2414C6.38594 36.7859 7.23672 36.6203 8.03594 36.7797L12.0781 37.5883L13.1977 35.9094C13.7633 35.0625 15.0766 34.9328 15.7953 35.6516L16.8641 36.7188H17.9688C18.8305 36.7188 19.5312 37.4195 19.5312 38.2812C19.5312 39.143 18.8305 39.8438 17.9688 39.8438H4.6875C3.39531 39.8438 2.34375 38.7922 2.34375 37.5ZM28.0828 47.6562C29.0766 46.8258 29.6875 45.7328 29.6875 44.5312H28.125C28.125 46.225 25.9781 47.6562 23.4375 47.6562H6.28359C6.43359 45.9375 7.075 44.3031 8.13359 42.9398C9.70234 43.9609 11.5406 44.5312 13.4531 44.5312H16.2352C19.8141 44.5312 23.0828 42.5703 24.7852 39.4742C25.3547 39.7164 25.9711 39.8453 26.6086 39.8453H26.6102L39.7625 39.8438H39.7641C42.0695 39.8438 44.2531 40.8492 45.7555 42.6016C46.9625 44.0102 47.6359 45.8016 47.6562 47.6562H28.0828Z" fill="#f7f7f7"/>
<path d="M10.9375 32.8125C11.369 32.8125 11.7188 32.4627 11.7188 32.0312C11.7188 31.5998 11.369 31.25 10.9375 31.25C10.506 31.25 10.1562 31.5998 10.1562 32.0312C10.1562 32.4627 10.506 32.8125 10.9375 32.8125Z" fill="#f7f7f7"/>
<path d="M18.75 32.8125C19.1815 32.8125 19.5312 32.4627 19.5312 32.0312C19.5312 31.5998 19.1815 31.25 18.75 31.25C18.3185 31.25 17.9688 31.5998 17.9688 32.0312C17.9688 32.4627 18.3185 32.8125 18.75 32.8125Z" fill="#f7f7f7"/>
<path d="M17.0532 20.1781L15.9485 19.0734C15.3578 19.664 14.3297 19.664 13.7391 19.0734L12.6344 20.1781C13.2242 20.7687 14.0094 21.0937 14.8438 21.0937C15.6782 21.0937 16.4633 20.7687 17.0532 20.1781Z" fill="#f7f7f7"/>
</svg>
