<svg width="70" height="70" viewBox="0 0 70 70" fill="none" xmlns="http://www.w3.org/2000/svg">
<path d="M35 0C30.4897 0 26.8333 3.65633 26.8333 8.16667C26.8384 12.6748 30.4918 16.3282 35 16.3333C39.5103 16.3333 43.1667 12.677 43.1667 8.16667C43.1667 3.65633 39.5103 0 35 0ZM35 14C31.7784 14 29.1667 11.3883 29.1667 8.16667C29.1705 4.94667 31.78 2.33713 35 2.33333C38.2216 2.33333 40.8333 4.94506 40.8333 8.16667C40.8333 11.3883 38.2216 14 35 14Z" fill="#f7f7f7"/>
<path d="M38.5 17.5H31.5C25.7037 17.5064 21.0064 22.2037 21 28V47.8333H25.6667V70H28V43.1667H25.6667V45.5H23.3333V28C23.3384 23.4919 26.9919 19.8384 31.5 19.8333H38.5C43.0081 19.8384 46.6616 23.4919 46.6667 28V45.5H44.3333V43.1667H42V70H44.3333V47.8333H49V28C48.9936 22.2037 44.2963 17.5064 38.5 17.5Z" fill="#f7f7f7"/>
<path d="M36.1667 47.8333H33.8333V70H36.1667V47.8333Z" fill="#f7f7f7"/>
<path d="M58.3333 11.6667C54.4673 11.6667 51.3333 14.8006 51.3333 18.6667C51.3371 22.5311 54.4689 25.6629 58.3333 25.6667C62.1994 25.6667 65.3333 22.5327 65.3333 18.6667C65.3333 14.8006 62.1994 11.6667 58.3333 11.6667ZM58.3333 23.3333C55.756 23.3333 53.6667 21.244 53.6667 18.6667C53.6667 16.0893 55.756 14 58.3333 14C60.9107 14 63 16.0893 63 18.6667C63 21.244 60.9107 23.3333 58.3333 23.3333Z" fill="#f7f7f7"/>
<path d="M61.8333 26.8333H51.3333V29.1667H61.8333C65.0533 29.1705 67.6629 31.78 67.6667 35V50.1667H65.3333V47.8333H63V70H65.3333V52.5H70V35C69.9949 30.4919 66.3415 26.8384 61.8333 26.8333Z" fill="#f7f7f7"/>
<path d="M51.3333 47.8333V50.1667H46.6667V52.5H51.3333V70H53.6667V47.8333H51.3333Z" fill="#f7f7f7"/>
<path d="M59.5 52.5H57.1667V70H59.5V52.5Z" fill="#f7f7f7"/>
<path d="M11.6667 11.6667C7.80062 11.6667 4.66666 14.8006 4.66666 18.6667C4.67045 22.5311 7.80222 25.6629 11.6667 25.6667C15.5327 25.6667 18.6667 22.5327 18.6667 18.6667C18.6667 14.8006 15.5327 11.6667 11.6667 11.6667ZM11.6667 23.3333C9.08934 23.3333 6.99999 21.244 6.99999 18.6667C6.99999 16.0893 9.08934 14 11.6667 14C14.244 14 16.3333 16.0893 16.3333 18.6667C16.3333 21.244 14.244 23.3333 11.6667 23.3333Z" fill="#f7f7f7"/>
<path d="M8.16667 26.8333C3.65852 26.8384 0.00510417 30.4919 0 35V52.5H4.66667V70H7V47.8333H4.66667V50.1667H2.33333V35C2.33713 31.78 4.94667 29.1705 8.16667 29.1667H18.6667V26.8333H8.16667Z" fill="#f7f7f7"/>
<path d="M18.6667 50.1667V47.8333H16.3333V70H18.6667V52.5H23.3333V50.1667H18.6667Z" fill="#f7f7f7"/>
<path d="M12.8333 52.5H10.5V70H12.8333V52.5Z" fill="#f7f7f7"/>
</svg>
