<svg width="66" height="69" viewBox="0 0 66 69" fill="none" xmlns="http://www.w3.org/2000/svg">
<path d="M17.8311 25.3037L17.4478 27.086C18.0481 27.2112 18.6933 27.329 19.3653 27.436L19.6608 25.6373C19.0179 25.5352 18.4025 25.4229 17.8311 25.3037Z" fill="#f7f7f7"/>
<path d="M3.30506 16.4842C3.91256 18.2095 4.955 19.199 6.16519 19.199C7.37538 19.199 8.41782 18.2096 9.02545 16.4841C9.11364 16.2332 9.3184 16.0315 9.573 15.9447C11.3253 15.3466 12.3304 14.3202 12.3304 13.1285C12.3304 11.9367 11.3254 10.9104 9.573 10.3124C9.3184 10.2254 9.11364 10.0238 9.02532 9.77289C8.4177 8.04761 7.37526 7.05811 6.16507 7.05811C4.95487 7.05811 3.91244 8.04761 3.30506 9.77301C3.21662 10.0238 3.01198 10.2256 2.75738 10.3124C1.00494 10.9106 0 11.9369 0 13.1285C0 14.3201 1.00494 15.3466 2.75738 15.9447C3.01198 16.0316 3.21674 16.2332 3.30506 16.4842ZM1.85026 13.1285C1.85026 12.896 2.25325 12.4126 3.36328 12.0337C4.14915 11.7655 4.78083 11.1434 5.05318 10.3697C5.43816 9.27662 5.9291 8.87982 6.16519 8.87982C6.40128 8.87982 6.89222 9.27662 7.2772 10.3696C7.54956 11.1434 8.18123 11.7655 8.9671 12.0337C10.0771 12.4126 10.4801 12.896 10.4801 13.1285C10.4801 13.3609 10.0771 13.8445 8.9671 14.2234C8.18123 14.4916 7.54943 15.1137 7.2772 15.8873C6.89234 16.9803 6.40128 17.3771 6.16519 17.3771C5.9291 17.3771 5.43804 16.9803 5.05331 15.8875C4.78095 15.1137 4.14915 14.4916 3.36328 14.2234C2.25312 13.8445 1.85026 13.3609 1.85026 13.1285Z" fill="#f7f7f7"/>
<path d="M54.5807 30.1653C54.326 30.0782 54.121 29.8766 54.0328 29.6258C53.4253 27.9005 52.3829 26.9109 51.1727 26.9109C49.9625 26.9109 48.92 27.9004 48.3125 29.6259C48.2242 29.8766 48.0193 30.0784 47.7649 30.1653C46.0125 30.7634 45.0075 31.7897 45.0075 32.9814C45.0075 34.1731 46.0124 35.1994 47.7646 35.7975C48.0193 35.8846 48.2243 36.0862 48.3125 36.337C48.92 38.0623 49.9625 39.0519 51.1727 39.0519C52.3829 39.0519 53.4253 38.0624 54.0328 36.3369C54.1211 36.0862 54.326 35.8844 54.5805 35.7975C56.3328 35.1994 57.3379 34.1731 57.3379 32.9814C57.3379 31.7897 56.3328 30.7634 54.5807 30.1653ZM53.9743 34.0761C53.1886 34.3444 52.5569 34.9665 52.2847 35.74C51.8998 36.8331 51.4088 37.2299 51.1727 37.2299C50.9366 37.2299 50.4455 36.8331 50.0607 35.7402C49.7884 34.9665 49.1567 34.3444 48.3708 34.0761C47.2607 33.6971 46.8577 33.2137 46.8577 32.9813C46.8577 32.7488 47.2607 32.2654 48.371 31.8865C49.1567 31.6182 49.7884 30.9961 50.0607 30.2225C50.4455 29.1294 50.9366 28.7326 51.1727 28.7326C51.4088 28.7326 51.8998 29.1294 52.2847 30.2224C52.5569 30.9961 53.1886 31.6182 53.9746 31.8865C55.0846 32.2654 55.4876 32.7488 55.4876 32.9813C55.4876 33.2137 55.0846 33.6971 53.9743 34.0761Z" fill="#f7f7f7"/>
<path d="M27.9382 42.616H29.7851V46.0168H27.9382V42.616Z" fill="#f7f7f7"/>
<path d="M30.7196 46.9344H34.1735V48.7529H30.7196V46.9344Z" fill="#f7f7f7"/>
<path d="M27.9382 49.7161H29.7851V53.1169H27.9382V49.7161Z" fill="#f7f7f7"/>
<path d="M23.5499 46.9344H27.0037V48.7529H23.5499V46.9344Z" fill="#f7f7f7"/>
<path d="M1.16936 31.8786H3.01962V33.6972H1.16936V31.8786Z" fill="#f7f7f7"/>
<path d="M43.6483 48.2257H45.4985V50.0442H43.6483V48.2257Z" fill="#f7f7f7"/>
<path d="M54.5366 16.3398H56.3868V18.1583H54.5366V16.3398Z" fill="#f7f7f7"/>
<path d="M54.5914 3.59808C55.1177 2.57894 54.8722 1.32066 53.9393 0.567145C52.8802 -0.288755 51.3451 -0.162441 50.4445 0.854995L41.3948 11.0818C39.9239 11.1466 38.4104 11.1801 36.8717 11.1801C31.0047 11.1801 25.4981 10.6975 21.3666 9.82135C15.8419 8.64979 15.5938 7.39479 15.5938 7.38264C15.5938 7.18418 16.0965 6.50087 18.3927 5.73121C20.5103 5.0213 23.522 4.44681 27.102 4.06932L26.9051 2.25793C23.1912 2.64938 20.0413 3.25399 17.7963 4.00641C15.0691 4.92049 13.7434 6.02489 13.7434 7.38252C13.7434 9.18978 16.1095 10.5701 20.9769 11.6023C25.2326 12.5048 30.8775 13.0017 36.8716 13.0017C37.8348 13.0017 38.7886 12.9887 39.7294 12.9634L35.8838 17.3092C34.0906 17.1727 32.2266 17.1028 30.3342 17.1028C25.235 17.1028 20.4301 17.6024 16.8048 18.5099C12.6863 19.5407 10.598 20.9579 10.598 22.722C10.598 24.2826 12.2453 25.5778 15.4937 26.5715L16.0427 24.8317C13.1995 23.962 12.4482 23.0715 12.4482 22.722C12.4482 22.508 12.7187 22.1194 13.4779 21.6701C14.3357 21.1625 15.6437 20.6804 17.2606 20.2757C20.7413 19.4045 25.3841 18.9247 30.334 18.9247C31.6963 18.9247 33.0424 18.9624 34.3566 19.035L27.7727 26.4753C26.4448 26.4295 25.1438 26.3483 23.884 26.2315L23.7106 28.0453C24.5317 28.1215 25.3698 28.1827 26.2204 28.2296L25.8921 28.6007C24.7723 29.8662 23.5124 31.0176 22.1476 32.0232L20.1095 33.5247C18.4323 34.7605 16.9084 36.1954 15.5799 37.7896L3.61739 52.1462C2.59357 53.3747 2.59444 55.1576 3.61924 56.3852L5.61739 58.7791C6.27276 59.5646 7.21836 60 8.22318 60C8.40993 60 8.59866 59.9849 8.78788 59.9543C9.9961 59.7589 10.9762 58.9693 11.4102 57.8419L13.9462 51.2513L21.2854 42.4431C22.484 41.0047 23.8545 39.7053 25.3591 38.5808L27.1154 37.2677C28.9434 35.9016 30.5811 34.3019 31.9832 32.5132L35.3871 28.1708C38.5567 27.9537 41.4684 27.5335 43.8634 26.934C47.9819 25.9032 50.0702 24.4861 50.0702 22.7219C50.0702 20.4521 46.5613 19.1053 43.1017 18.329L47.7439 12.4069C49.5624 12.1927 51.2527 11.9231 52.7665 11.6021C57.6339 10.57 60 9.18966 60 7.3824C60 5.81805 58.2254 4.57373 54.5914 3.59808ZM51.8394 2.05182C51.9718 1.90207 52.1561 1.82518 52.342 1.82518C52.4909 1.82518 52.6409 1.87462 52.7659 1.97543C53.0465 2.20231 53.0926 2.60165 52.8708 2.88477L46.7563 10.6853C45.8596 10.7812 44.9325 10.8634 43.9812 10.9321L51.8394 2.05182ZM14.9216 41.4515L16.0952 40.043L18.9621 42.359L17.7884 43.7675L14.9216 41.4515ZM16.6151 45.1759L15.4414 46.5845L12.5745 44.2684L13.7482 42.8599L16.6151 45.1759ZM8.48789 58.1567C7.93947 58.2459 7.40018 58.0459 7.04666 57.6226L5.0485 55.2287C4.58273 54.6706 4.58248 53.8603 5.04764 53.3018L8.96575 48.5995L12.0341 51.0783L11.3274 52.9149C10.8242 52.4745 10.1623 52.2062 9.43757 52.2062C7.86706 52.2062 6.58915 53.4643 6.58915 55.0108H8.43941C8.43941 54.4689 8.88717 54.028 9.43757 54.028C9.98796 54.028 10.4357 54.4689 10.4357 55.0108V55.2326L9.67995 57.1967C9.48271 57.7089 9.03705 58.0678 8.48789 58.1567ZM13.0062 49.5071L10.1393 47.191L11.4009 45.6768L14.2679 47.9929L13.0062 49.5071ZM20.1407 40.9547L17.2735 38.6386C17.6736 38.1747 18.0902 37.7251 18.5251 37.2929L21.3878 39.6055C20.9554 40.0399 20.5407 40.4911 20.1407 40.9547ZM30.5184 31.4003C29.216 33.0618 27.6947 34.5477 25.9968 35.8168L24.2404 37.1299C23.7253 37.5149 23.2266 37.921 22.7419 38.3428L19.8899 36.0389C20.3203 35.6724 20.7623 35.319 21.2179 34.9832L23.2561 33.4818C24.7253 32.3993 26.0815 31.1597 27.287 29.7974L28.5931 28.3215C29.1696 28.3345 29.7502 28.3413 30.3342 28.3413C31.2175 28.3413 32.0909 28.3253 32.9519 28.2958L30.5184 31.4003ZM48.22 22.7222C48.22 22.9362 47.9495 23.3248 47.1903 23.7741C46.3325 24.2816 45.0245 24.7638 43.4076 25.1685C41.5364 25.6369 39.3272 25.9909 36.917 26.2192L41.8485 19.9281C46.4763 20.8499 48.22 22.1163 48.22 22.7222ZM34.4337 26.4053C33.104 26.4799 31.7321 26.5195 30.334 26.5195C30.2853 26.5195 30.237 26.5187 30.1882 26.5186L42.272 12.8632C43.2728 12.8109 44.2523 12.7439 45.2058 12.6629L34.4337 26.4053ZM52.3769 9.82135C51.4356 10.021 50.4224 10.1999 49.3504 10.3576L53.4102 5.17846C57.9328 6.27691 58.1497 7.37135 58.1497 7.38264C58.1497 7.39467 57.9016 8.64979 52.3769 9.82135Z" fill="#f7f7f7"/>
</svg>
