<svg width="60" height="60" viewBox="0 0 60 60" fill="none" xmlns="http://www.w3.org/2000/svg">
<g clip-path="url(#clip0)">
<path d="M6.00189 59.9991C5.83452 59.9991 5.67285 59.9328 5.55366 59.8133L0.185939 54.4459C0.0534339 54.3134 -0.0137696 54.1286 0.00271428 53.9419C0.0191981 53.7548 0.117467 53.5849 0.271528 53.4775L5.54985 49.7949C5.42971 48.3228 5.95656 46.8538 7.00012 45.796C7.00297 45.7931 7.00582 45.7903 7.00836 45.7877C7.00899 45.7871 7.00963 45.7865 7.01026 45.7858C7.01026 45.7855 7.01184 45.7843 7.01279 45.7833C7.01311 45.783 7.01311 45.7827 7.01311 45.7827C7.01375 45.782 7.01406 45.7817 7.0147 45.7811C7.01533 45.7805 7.01628 45.7795 7.01628 45.7795C7.01692 45.7789 7.01723 45.7782 7.01787 45.7776L7.01818 45.7773C7.01882 45.7763 7.01977 45.7757 7.0204 45.7747C7.0204 45.7747 7.02072 45.7744 7.02135 45.7738C7.02231 45.7728 7.02357 45.7716 7.02357 45.7716C7.02421 45.7709 7.02484 45.7703 7.02548 45.7694C7.02738 45.7678 7.03023 45.7649 7.0315 45.7633C7.0315 45.7633 7.0315 45.7633 7.03181 45.763C7.03181 45.7627 7.03182 45.7627 7.03213 45.7627C7.03213 45.7624 7.03625 45.7586 7.03657 45.7583C7.03657 45.7583 7.03657 45.7583 7.03657 45.7579C7.0372 45.7573 7.03752 45.7567 7.03815 45.7564C7.99834 44.8038 9.27235 44.2795 10.625 44.2795C10.8618 44.2795 11.0986 44.296 11.3332 44.3286L19.6081 36.4065C19.3548 34.8795 19.8385 33.3402 20.9382 32.2266C20.9388 32.226 20.9394 32.2253 20.9404 32.2247C20.9407 32.2241 20.9413 32.2234 20.942 32.2231C20.942 32.2228 20.942 32.2228 20.942 32.2228C20.942 32.2228 20.942 32.2228 20.9423 32.2228C20.9423 32.2222 20.9426 32.2222 20.9426 32.2222C20.9436 32.2215 20.9445 32.2206 20.9451 32.2193C20.9451 32.2193 20.9461 32.2184 20.9471 32.2174C20.9477 32.2168 20.9486 32.2158 20.9486 32.2158V32.2155C20.9486 32.2155 20.9486 32.2155 20.949 32.2152C20.9512 32.2136 20.9524 32.2117 20.9531 32.2111C20.9537 32.2104 20.955 32.2092 20.955 32.2092V32.2088C20.9553 32.2088 20.9556 32.2085 20.9556 32.2082V32.2079L20.9588 32.2047C21.8711 31.2921 23.0846 30.7896 24.3751 30.7896C24.6921 30.7896 25.0075 30.8207 25.3169 30.8819C25.3486 30.8058 25.3948 30.737 25.4519 30.6793C25.5378 30.5925 25.6484 30.5297 25.7724 30.5037L31.9532 24.587C31.9557 23.6822 32.313 22.814 32.9578 22.1667C32.9581 22.167 32.9619 22.1629 32.9622 22.1622C32.9736 22.1508 32.985 22.1394 32.9964 22.1283C33.6761 21.4671 34.5805 21.1162 35.5365 21.1564L40.3898 16.5105C40.2915 15.5005 40.6421 14.495 41.3614 13.7631C41.362 13.7624 41.3626 13.7615 41.3633 13.7609C41.3639 13.7602 41.3645 13.7596 41.3652 13.759C41.3655 13.7586 41.3715 13.7526 41.3718 13.7523L41.3721 13.752C41.3725 13.7514 41.3731 13.751 41.3734 13.7504C41.3737 13.7507 41.3744 13.7498 41.3747 13.7491C41.3747 13.7491 41.375 13.7485 41.3756 13.7482C41.3763 13.7472 41.3775 13.7463 41.3775 13.746C41.3782 13.7453 41.3788 13.7447 41.3794 13.7441C41.3804 13.7431 41.3817 13.7418 41.3817 13.7415C41.3817 13.7412 41.382 13.7412 41.382 13.7409C42.0324 13.0907 42.8972 12.7325 43.8171 12.7325C43.9785 12.7325 44.1395 12.7439 44.2993 12.7661L49.1896 8.08502C49.091 7.18697 49.3912 6.29526 50.0255 5.63432C50.0373 5.62227 50.049 5.60991 50.0607 5.59818C50.0607 5.59786 50.0617 5.59691 50.062 5.59691C50.0623 5.59659 50.0636 5.59438 50.0642 5.59469C50.0642 5.59469 50.0642 5.59469 50.0642 5.59438C50.0649 5.59374 50.0655 5.59311 50.0661 5.59247C50.0664 5.59216 50.0668 5.59152 50.0674 5.59121C50.068 5.59025 50.0699 5.58867 50.0699 5.58835C50.0797 5.57853 50.0896 5.5687 50.0994 5.55919C50.6747 4.99842 51.4327 4.69062 52.2375 4.69062C52.3922 4.69062 52.5463 4.70203 52.6988 4.72517L56.8492 0.75224C57.4994 0.129657 58.0985 -0.000946045 58.4868 -0.000946045C59.1075 -0.000946045 59.6378 0.337924 59.8708 0.883794C60.1676 1.57834 59.9323 2.42345 59.2419 3.14462L55.2687 7.29507C55.412 8.24416 55.1019 9.21892 54.4185 9.91093C54.4182 9.91125 54.4175 9.91188 54.4172 9.9122C54.4169 9.91251 54.4166 9.91188 54.4163 9.91347C54.416 9.91378 54.4156 9.9141 54.4153 9.91442C54.415 9.91473 54.4144 9.91505 54.4141 9.91568C54.4134 9.91632 54.4128 9.91695 54.4121 9.9179C54.4115 9.91854 54.4109 9.91917 54.4099 9.92012C54.4096 9.92044 54.4093 9.92076 54.409 9.92107C54.408 9.92234 54.4071 9.92329 54.4058 9.92424C54.4058 9.92456 54.4055 9.92456 54.4055 9.92488C53.7493 10.5807 52.8332 10.9022 51.9101 10.8045L49.5342 13.286C49.636 13.2166 49.7589 13.176 49.8914 13.176C50.2414 13.176 50.5254 13.4597 50.5254 13.81C50.5254 14.16 50.2414 14.444 49.8914 14.444C49.5412 14.444 49.2575 14.16 49.2575 13.81C49.2575 13.6873 49.292 13.5729 49.3522 13.4759L47.2287 15.6942C47.3789 16.74 47.0464 17.7861 46.3062 18.5583C46.2932 18.5719 46.2799 18.5856 46.2666 18.5989C46.2666 18.5992 46.2663 18.5979 46.266 18.5998C46.2653 18.6008 46.2647 18.6011 46.264 18.6017C46.2637 18.6024 46.2631 18.603 46.2625 18.6036C46.2618 18.6043 46.2612 18.6049 46.2606 18.6055V18.6059C46.2599 18.6065 46.2593 18.6071 46.2587 18.6078L46.2583 18.6081C46.258 18.6087 46.2577 18.609 46.2571 18.6093C46.2561 18.6106 46.2549 18.6119 46.2536 18.6128C46.2536 18.6131 46.2533 18.6131 46.2533 18.6135C45.5242 19.3422 44.5126 19.7036 43.4852 19.6057L38.8393 24.4586C38.8786 25.3905 38.5436 26.2883 37.895 26.9701C37.8611 27.0145 37.8215 27.0541 37.7774 27.0881C37.1361 27.7018 36.2983 28.0397 35.4085 28.0425L29.1031 34.6288C29.3814 35.9672 29.0787 37.3841 28.2643 38.487C28.2634 38.4882 28.2624 38.4895 28.2614 38.4908C28.2614 38.4911 28.2614 38.4911 28.2614 38.4911C28.2611 38.4911 28.2605 38.4924 28.2602 38.4927C28.2599 38.4933 28.2595 38.4936 28.2592 38.4943C28.1343 38.6623 27.9974 38.8243 27.8509 38.9761C27.818 39.0189 27.7793 39.0576 27.7368 39.0905C26.8308 39.9693 25.6396 40.4527 24.3744 40.4527C24.1113 40.4527 23.8488 40.4314 23.5895 40.389L22.7026 41.3155C22.655 41.3932 22.591 41.4601 22.5156 41.5108L15.6675 48.6642C15.8741 50.148 15.4161 51.6623 14.4099 52.7791C14.4033 52.7864 14.3966 52.794 14.39 52.8013C14.3893 52.8019 14.3887 52.8026 14.3881 52.8032C14.3874 52.8042 14.3871 52.8048 14.3865 52.8054C14.3855 52.8064 14.3843 52.8077 14.3833 52.8089C14.3827 52.8096 14.382 52.8102 14.3814 52.8111C14.3811 52.8115 14.3811 52.8118 14.3808 52.8121C14.3798 52.813 14.3789 52.814 14.3782 52.8149C14.3478 52.8479 14.317 52.8809 14.2857 52.9135C14.2527 52.9563 14.2143 52.9944 14.1719 53.0273C13.1156 54.0535 11.6771 54.5721 10.2024 54.4488L6.51986 59.7268C6.41272 59.8805 6.24249 59.9791 6.05578 59.9956C6.03898 59.9981 6.02059 59.9991 6.00189 59.9991ZM1.61782 54.0845L5.91535 58.3817L8.86469 54.1549C8.17744 53.9026 7.55232 53.5035 7.02452 52.9753C6.49641 52.4472 6.09731 51.8221 5.84498 51.1349L1.61782 54.0845ZM9.93931 53.1376C9.96214 53.1389 9.98465 53.1415 10.0075 53.1449C10.2126 53.1782 10.4224 53.1953 10.6304 53.1953C11.6292 53.1953 12.5685 52.8162 13.283 52.1261C13.2992 52.1103 13.3153 52.0944 13.3312 52.0789C13.3318 52.0782 13.3325 52.0776 13.3331 52.077C13.3331 52.0767 13.3334 52.0767 13.3334 52.0763C13.3337 52.0757 13.3344 52.0754 13.3347 52.0748C13.3347 52.0748 13.335 52.0744 13.3353 52.0741C13.3733 52.0361 13.4101 51.9977 13.4459 51.9584C13.4459 51.9584 13.4459 51.9584 13.4463 51.9581V51.9584V51.9581C13.4466 51.9575 13.4472 51.9568 13.4478 51.9562C13.4478 51.9562 13.4482 51.9559 13.4485 51.9556L13.4488 51.9552C13.4497 51.9552 13.4494 51.9546 13.4501 51.954C13.4507 51.953 13.4516 51.9521 13.4523 51.9514C13.4523 51.9511 13.4523 51.9511 13.4523 51.9511C13.4526 51.9508 13.4529 51.9505 13.4532 51.9499C13.4535 51.9495 13.4542 51.9489 13.4545 51.9483C14.2762 51.0464 14.6172 49.7908 14.3671 48.5894C14.3636 48.5716 14.3605 48.5545 14.3586 48.5367C14.2007 47.8292 13.846 47.1838 13.3302 46.6677C12.8145 46.152 12.1691 45.7969 11.4615 45.6394C11.4438 45.6372 11.4263 45.6343 11.4086 45.6308C11.1506 45.5769 10.8856 45.5497 10.6215 45.5497C9.60615 45.5497 8.6504 45.9428 7.93082 46.6566C7.9305 46.657 7.9305 46.6579 7.92955 46.6579C7.92955 46.6582 7.92955 46.6582 7.92955 46.6582C7.92923 46.6579 7.92892 46.6589 7.92828 46.6595C7.92765 46.6601 7.92702 46.6608 7.92638 46.6614C7.92543 46.6623 7.92416 46.6636 7.92321 46.6646C7.92194 46.6658 7.92099 46.6668 7.91972 46.668C7.91941 46.6687 7.91877 46.669 7.91846 46.6696C7.91814 46.6699 7.91782 46.6703 7.91751 46.6706V46.6709L7.91719 46.6712C7.91719 46.6712 7.91719 46.6712 7.91719 46.6715C7.91687 46.6722 7.91592 46.6728 7.9156 46.6731C7.91497 46.6741 7.91434 46.675 7.91402 46.6747C7.91338 46.6753 7.91307 46.676 7.91243 46.6766C7.9118 46.6772 7.91117 46.6779 7.91053 46.6785C7.91053 46.6785 7.91021 46.6788 7.91021 46.6791C7.90768 46.6817 7.90514 46.6842 7.90261 46.6868C7.04988 47.5512 6.65839 48.7856 6.85493 49.9921C6.85873 50.0149 6.86127 50.038 6.86222 50.0612C7.00107 50.828 7.36625 51.5244 7.92068 52.0789C8.47542 52.6333 9.17218 52.9985 9.93931 53.1376ZM12.7406 44.7382C13.2903 44.9889 13.7937 45.3376 14.2277 45.7719C14.6616 46.2062 15.0103 46.7093 15.2614 47.2589L22.2483 39.9604C21.7741 39.7274 21.3389 39.4164 20.9607 39.0386C20.5828 38.6607 20.2722 38.2255 20.0392 37.7509L12.7406 44.7382ZM23.4589 39.0658C23.4827 39.069 23.5065 39.0731 23.5303 39.0788C23.8089 39.147 24.0961 39.1812 24.3833 39.1812C25.334 39.1812 26.2263 38.8119 26.8971 38.1418C26.8977 38.1411 26.8984 38.1402 26.899 38.1395C26.9006 38.1389 26.9003 38.1383 26.9006 38.1376L26.9009 38.1373C27.0248 38.0131 27.1396 37.8796 27.2433 37.7401C27.2433 37.7398 27.2433 37.7398 27.2433 37.7398C27.2436 37.7395 27.2436 37.7392 27.2439 37.7392V37.7389C27.2445 37.7389 27.2445 37.7382 27.2448 37.7376C27.9007 36.8513 28.1071 35.6863 27.797 34.6218C27.7942 34.612 27.7913 34.6019 27.7891 34.592C27.6208 34.0325 27.3127 33.518 26.8968 33.1021C26.4812 32.6866 25.9677 32.3791 25.4094 32.2104C25.3986 32.2076 25.3879 32.2047 25.3771 32.2019C25.0522 32.1071 24.7152 32.0592 24.3757 32.0592C23.4456 32.0592 22.5704 32.413 21.9031 33.0571C21.8876 33.072 21.8724 33.0869 21.8571 33.1021C21.8568 33.1028 21.8562 33.1034 21.8556 33.104C21.8549 33.1047 21.8543 33.105 21.8537 33.1059C21.8533 33.1063 21.8527 33.1069 21.8524 33.1072C21.8518 33.1085 21.8508 33.1088 21.8502 33.1097C21.8499 33.1097 21.8495 33.1101 21.8492 33.1104C21.8489 33.111 21.8483 33.1117 21.8476 33.1123C21.8473 33.1126 21.847 33.1129 21.8467 33.1136L21.8464 33.1139C21.8457 33.1148 21.8451 33.1155 21.8442 33.1161C20.9692 34.0002 20.624 35.2536 20.9204 36.4693C20.9261 36.4927 20.9306 36.5162 20.9337 36.5403C21.0941 37.1442 21.4127 37.6967 21.8578 38.1421C22.3029 38.5875 22.8551 38.9054 23.4589 39.0658ZM26.6929 31.3815C27.0955 31.6015 27.4671 31.8792 27.7936 32.206C28.1201 32.5325 28.3978 32.904 28.6181 33.3066L33.9588 27.7278C33.5918 27.5585 33.2542 27.3249 32.9644 27.0348C32.6747 26.7454 32.4414 26.4078 32.2718 26.0407L26.6929 31.3815ZM35.1764 26.7647C35.1869 26.765 35.197 26.7657 35.2075 26.7666C35.8532 26.8237 36.4828 26.5945 36.9389 26.1387C36.9396 26.138 36.9402 26.1374 36.9408 26.1368C36.9412 26.1364 36.9415 26.1361 36.9418 26.1358V26.1355C37.4205 25.6549 37.6436 24.9914 37.5545 24.314C37.5523 24.2956 37.5504 24.2779 37.5498 24.2595C37.4782 23.8033 37.2677 23.3897 36.9389 23.0606C36.6096 22.7313 36.1956 22.5208 35.7388 22.4494C35.7207 22.4485 35.703 22.4469 35.6855 22.4447C35.0135 22.3553 34.338 22.5835 33.8609 23.0603C33.8609 23.0612 33.8603 23.0609 33.8599 23.0616C33.8593 23.0622 33.859 23.0625 33.8584 23.0632C33.4044 23.519 33.1765 24.1492 33.2329 24.7921C33.2339 24.8016 33.2345 24.8117 33.2348 24.8212C33.2855 25.3176 33.5071 25.7846 33.8612 26.1383C34.2147 26.4918 34.6806 26.7134 35.1764 26.7647ZM36.9779 21.5352C37.2911 21.6969 37.5796 21.9077 37.8357 22.1635C38.0919 22.4193 38.3023 22.7081 38.464 23.021L42.1371 19.1841C41.8635 19.0306 41.6105 18.8395 41.3851 18.6138C41.1598 18.3884 40.9683 18.1354 40.8149 17.8619L36.9779 21.5352ZM43.3527 18.3044C43.3632 18.306 43.3734 18.3079 43.3838 18.3101C44.0961 18.4562 44.8455 18.2324 45.36 17.7179C45.3606 17.7173 45.3612 17.7164 45.3619 17.7157C45.3622 17.7154 45.3625 17.7151 45.3625 17.7151C45.3628 17.7145 45.3635 17.7138 45.3641 17.7135C45.3644 17.7129 45.365 17.7126 45.3654 17.7119C45.3657 17.7116 45.366 17.7113 45.3663 17.711C45.3669 17.7103 45.3673 17.7097 45.3679 17.7091C45.9049 17.1657 46.1147 16.3961 45.929 15.6505C45.9242 15.6321 45.9207 15.614 45.9176 15.5953C45.818 15.2352 45.6256 14.9059 45.3593 14.6393C45.0927 14.3727 44.7624 14.1802 44.4017 14.0804C44.3839 14.0775 44.3662 14.0741 44.3484 14.0696C43.612 13.8873 42.8167 14.1035 42.281 14.6393C42.2807 14.6405 42.2803 14.6402 42.28 14.6405C42.2797 14.6408 42.2794 14.6412 42.2791 14.6415C42.2788 14.6418 42.2781 14.6418 42.2784 14.6421C42.2778 14.6427 42.2772 14.6434 42.2765 14.644C42.2769 14.645 42.2759 14.645 42.2756 14.6453C42.2753 14.6453 42.275 14.6456 42.2746 14.6462C42.274 14.6469 42.2734 14.6475 42.2727 14.6485C42.2721 14.6491 42.2711 14.65 42.2705 14.6507C41.7611 15.1674 41.544 15.9019 41.6895 16.6157C41.6917 16.6265 41.6936 16.6373 41.6952 16.6484C41.7839 17.0532 41.9865 17.4225 42.2816 17.7179C42.5774 18.0131 42.947 18.2159 43.3527 18.3044ZM45.6335 13.2495C45.8583 13.3884 46.0675 13.5542 46.2564 13.7431C46.4454 13.932 46.6108 14.1413 46.75 14.366L50.598 10.3462C50.4097 10.2263 50.2338 10.0859 50.074 9.92583C49.9143 9.76606 49.7732 9.59013 49.6534 9.40183L45.6335 13.2495ZM51.7839 9.49661C51.8001 9.49915 51.8163 9.50232 51.8324 9.50581C52.4331 9.64624 53.077 9.46491 53.5125 9.02904C53.5131 9.02841 53.5135 9.02777 53.5141 9.02714C53.5141 9.02714 53.5144 9.02682 53.5147 9.02651C53.515 9.02619 53.5154 9.02587 53.5157 9.02556C53.5157 9.02524 53.5157 9.02556 53.5157 9.02524C53.516 9.02492 53.5166 9.02429 53.517 9.02397V9.02365C53.517 9.02365 53.5169 9.02365 53.5173 9.02334C53.5173 9.02334 53.5173 9.02334 53.5173 9.02302C53.5176 9.02302 53.5179 9.0227 53.5185 9.02207C53.5185 9.02175 53.5189 9.02143 53.5192 9.02112C53.5208 9.01953 53.5223 9.01795 53.5242 9.01605C53.9725 8.55894 54.1437 7.89134 53.9703 7.27161C53.9671 7.25988 53.9639 7.24783 53.9614 7.23579C53.8764 6.95429 53.7214 6.69594 53.5119 6.48641C53.3027 6.27719 53.0443 6.12249 52.7634 6.03722C52.7511 6.03437 52.7387 6.0312 52.7267 6.02803C52.1085 5.85558 51.4257 6.0312 50.9699 6.48672C50.9696 6.48672 50.9696 6.48704 50.9692 6.48736C50.9692 6.48736 50.9692 6.48736 50.9689 6.48767L50.9686 6.48799V6.48831C50.9686 6.48831 50.9683 6.48862 50.968 6.48894C50.968 6.48894 50.9673 6.48958 50.9667 6.49021C50.9664 6.49021 50.9658 6.49148 50.9648 6.49211C50.5283 6.93274 50.3517 7.55881 50.4934 8.16681C50.4972 8.18329 50.5004 8.19978 50.5029 8.21658C50.5835 8.52311 50.7445 8.80302 50.9705 9.02904C51.1965 9.25506 51.4771 9.4161 51.7839 9.49661ZM53.9962 5.24409C54.1433 5.3468 54.2815 5.4625 54.4093 5.59025C54.5371 5.71769 54.6528 5.85622 54.7555 6.00362L58.3296 2.26971C58.6913 1.89216 58.7804 1.55234 58.7084 1.3837C58.6758 1.30762 58.6025 1.26895 58.4903 1.26895C58.3876 1.26895 58.1077 1.30794 57.7298 1.66995L53.9962 5.24409Z" fill="#f7f7f7"/>
</g>
<defs>
<clipPath id="clip0">
<rect width="60" height="60" fill="white"/>
</clipPath>
</defs>
</svg>
